<?xml version="1.0" encoding="UTF-8"?>
<svg width="272px" height="272px" viewBox="0 0 272 272" version="1.1" xmlns="http://www.w3.org/2000/svg" xmlns:xlink="http://www.w3.org/1999/xlink">
    <title>DEDB73AB-E6E1-4FE2-99BE-E11254E7F0C8</title>
    <defs>
        <radialGradient cx="49.9345454%" cy="49.9999592%" fx="49.9345454%" fy="49.9999592%" r="50.0653666%" id="radialGradient-1">
            <stop stop-color="#63A1FA" stop-opacity="0" offset="0.689248%"></stop>
            <stop stop-color="#62A1FA" offset="28.0605%"></stop>
            <stop stop-color="#36A5FC" offset="43.2413%"></stop>
            <stop stop-color="#00CCFE" offset="62.5098%"></stop>
            <stop stop-color="#6AECFB" offset="74.0517%"></stop>
            <stop stop-color="#FFFFFF" offset="83.3333%"></stop>
            <stop stop-color="#FFFFFF" stop-opacity="0" offset="90.9501%"></stop>
        </radialGradient>
        <linearGradient x1="49.9345454%" y1="3.91108666e-05%" x2="49.9345454%" y2="99.9998793%" id="linearGradient-2">
            <stop stop-color="#71AAFB" offset="0%"></stop>
            <stop stop-color="#20B6FD" offset="51.5625%"></stop>
            <stop stop-color="#67ECFC" offset="100%"></stop>
        </linearGradient>
        <radialGradient cx="50%" cy="50%" fx="50%" fy="50%" r="50%" id="radialGradient-3">
            <stop stop-color="#E6FCFF" offset="0%"></stop>
            <stop stop-color="#E6FCFF" stop-opacity="0" offset="100%"></stop>
        </radialGradient>
    </defs>
    <g id="360-v2" stroke="none" stroke-width="1" fill="none" fill-rule="evenodd">
        <g id="2AC-Jalate/NIP-Loading" transform="translate(-824.000000, -444.000000)" fill-rule="nonzero">
            <g id="Imagen" transform="translate(824.000000, 444.000000)">
                <path d="M10.7487785,134.49989 C5.17031744,134.49989 0.608674603,129.976631 1.02660817,124.421164 C3.02854882,97.8096001 12.9234331,72.3085972 29.5606438,51.2318553 C48.2887282,27.5065624 74.4695542,10.7690025 103.884479,3.71634991 C133.299405,-3.33631835 164.235384,-0.293385834 191.707688,12.3548176 C219.179993,25.0029897 241.58786,46.5198274 255.321663,73.438239 C269.0539,100.356651 273.313415,131.108775 267.412734,160.73986 C261.510488,190.370475 245.790999,217.153136 222.789619,236.774465 C199.786673,256.39423 170.839198,267.709416 140.611363,268.896455 C113.758411,269.948994 87.2845864,262.955005 64.5505223,248.931056 C59.8044518,246.00334 58.8216314,239.658391 62.1005182,235.151084 L62.1005182,235.151084 C65.3794051,230.643777 71.6762834,229.688203 76.4607208,232.553361 C95.4916692,243.948308 117.500989,249.612939 139.818185,248.737126 C165.511672,247.728378 190.116634,238.110079 209.669687,221.43367 C229.221173,204.755697 242.582269,181.989262 247.59816,156.803395 C252.615618,131.617372 248.995031,105.478121 237.322081,82.597518 C225.647565,59.716915 206.60033,41.427603 183.249733,30.6765347 C159.899135,19.9256228 133.603052,17.3391606 108.600326,23.3339412 C83.5977571,29.3287217 61.3439846,43.5555147 45.4251441,63.7220371 C31.5980073,81.2387573 23.2498281,102.350688 21.2946795,124.425074 C20.8031127,129.974598 16.3271769,134.49989 10.7487785,134.49989 L10.7487785,134.49989 Z" id="Path" fill="url(#radialGradient-1)"></path>
                <path d="M10.7487785,134.49989 C5.17031744,134.49989 0.608674603,129.976631 1.02660817,124.421164 C3.02854882,97.8096001 12.9234331,72.3085972 29.5606438,51.2318553 C48.2887282,27.5065624 74.4695542,10.7690025 103.884479,3.71634991 C133.299405,-3.33631835 164.235384,-0.293385834 191.707688,12.3548176 C219.179993,25.0029897 241.58786,46.5198274 255.321663,73.438239 C269.0539,100.356651 273.313415,131.108775 267.412734,160.73986 C261.510488,190.370475 245.790999,217.153136 222.789619,236.774465 C199.786673,256.39423 170.839198,267.709416 140.611363,268.896455 C113.758411,269.948994 87.2845864,262.955005 64.5505223,248.931056 C59.8044518,246.00334 58.8216314,239.658391 62.1005182,235.151084 L62.1005182,235.151084 C65.3794051,230.643777 71.6762834,229.688203 76.4607208,232.553361 C95.4916692,243.948308 117.500989,249.612939 139.818185,248.737126 C165.511672,247.728378 190.116634,238.110079 209.669687,221.43367 C229.221173,204.755697 242.582269,181.989262 247.59816,156.803395 C252.615618,131.617372 248.995031,105.478121 237.322081,82.597518 C225.647565,59.716915 206.60033,41.427603 183.249733,30.6765347 C159.899135,19.9256228 133.603052,17.3391606 108.600326,23.3339412 C83.5977571,29.3287217 61.3439846,43.5555147 45.4251441,63.7220371 C31.5980073,81.2387573 23.2498281,102.350688 21.2946795,124.425074 C20.8031127,129.974598 16.3271769,134.49989 10.7487785,134.49989 L10.7487785,134.49989 Z" id="Path" fill="url(#linearGradient-2)"></path>
                <circle id="Oval" fill="#FEFFFF" cx="69.5" cy="239.5" r="13.5"></circle>
                <circle id="Oval" fill="url(#radialGradient-3)" cx="69" cy="240" r="32"></circle>
            </g>
        </g>
    </g>
</svg>